<svg width="53" height="54" viewBox="0 0 53 54" fill="none" xmlns="http://www.w3.org/2000/svg">
<rect x="3.75488" y="3.41864" width="45.5653" height="46.378" rx="6" fill="url(#paint0_radial_488_962)"/>
<rect x="3.75488" y="3.41864" width="45.5653" height="46.378" rx="6" fill="url(#paint1_radial_488_962)"/>
<rect x="3.75488" y="3.41864" width="45.5653" height="46.378" rx="6" fill="url(#paint2_radial_488_962)"/>
<path d="M37.9288 17.4977C37.9288 18.8698 36.8359 19.9822 35.4878 19.9822C34.1397 19.9822 33.0468 18.8698 33.0468 17.4977C33.0468 16.1255 34.1397 15.0131 35.4878 15.0131C36.8359 15.0131 37.9288 16.1255 37.9288 17.4977Z" fill="white"/>
<path fill-rule="evenodd" clip-rule="evenodd" d="M26.5375 34.8894C31.0312 34.8894 34.6742 31.1815 34.6742 26.6076C34.6742 22.0337 31.0312 18.3258 26.5375 18.3258C22.0437 18.3258 18.4008 22.0337 18.4008 26.6076C18.4008 31.1815 22.0437 34.8894 26.5375 34.8894ZM26.5375 31.5767C29.2337 31.5767 31.4195 29.352 31.4195 26.6076C31.4195 23.8633 29.2337 21.6386 26.5375 21.6386C23.8412 21.6386 21.6555 23.8633 21.6555 26.6076C21.6555 29.352 23.8412 31.5767 26.5375 31.5767Z" fill="white"/>
<path fill-rule="evenodd" clip-rule="evenodd" d="M10.2642 25.9451C10.2642 20.3792 10.2642 17.5963 11.3284 15.4704C12.2645 13.6004 13.7582 12.0801 15.5954 11.1273C17.684 10.0441 20.4182 10.0441 25.8866 10.0441H27.1884C32.6568 10.0441 35.3909 10.0441 37.4796 11.1273C39.3168 12.0801 40.8105 13.6004 41.7466 15.4704C42.8108 17.5963 42.8108 20.3792 42.8108 25.9451V27.2702C42.8108 32.8361 42.8108 35.619 41.7466 37.7449C40.8105 39.6149 39.3168 41.1352 37.4796 42.088C35.3909 43.1712 32.6568 43.1712 27.1884 43.1712H25.8866C20.4182 43.1712 17.684 43.1712 15.5954 42.088C13.7582 41.1352 12.2645 39.6149 11.3284 37.7449C10.2642 35.619 10.2642 32.8361 10.2642 27.2702V25.9451ZM25.8866 13.3568H27.1884C29.9763 13.3568 31.8715 13.3594 33.3364 13.4812C34.7633 13.5998 35.493 13.8149 36.002 14.0789C37.2268 14.7141 38.2226 15.7277 38.8467 16.9743C39.106 17.4924 39.3174 18.2352 39.4339 19.6875C39.5536 21.1785 39.5562 23.1075 39.5562 25.9451V27.2702C39.5562 30.1078 39.5536 32.0367 39.4339 33.5278C39.3174 34.9801 39.106 35.7228 38.8467 36.2409C38.2226 37.4876 37.2268 38.5012 36.002 39.1364C35.493 39.4003 34.7633 39.6154 33.3364 39.7341C31.8715 39.8559 29.9763 39.8585 27.1884 39.8585H25.8866C23.0987 39.8585 21.2035 39.8559 19.7386 39.7341C18.3117 39.6154 17.582 39.4003 17.073 39.1364C15.8482 38.5012 14.8524 37.4876 14.2283 36.2409C13.9689 35.7228 13.7576 34.9801 13.641 33.5278C13.5214 32.0367 13.5188 30.1078 13.5188 27.2702V25.9451C13.5188 23.1075 13.5214 21.1785 13.641 19.6875C13.7576 18.2352 13.9689 17.4924 14.2283 16.9743C14.8524 15.7277 15.8482 14.7141 17.073 14.0789C17.582 13.8149 18.3117 13.5998 19.7386 13.4812C21.2035 13.3594 23.0987 13.3568 25.8866 13.3568Z" fill="white"/>
<defs>
<radialGradient id="paint0_radial_488_962" cx="0" cy="0" r="1" gradientUnits="userSpaceOnUse" gradientTransform="translate(20.0282 38.2021) rotate(-55.8479) scale(42.0319 41.7637)">
<stop stop-color="#B13589"/>
<stop offset="0.79309" stop-color="#C62F94"/>
<stop offset="1" stop-color="#8A3AC8"/>
</radialGradient>
<radialGradient id="paint1_radial_488_962" cx="0" cy="0" r="1" gradientUnits="userSpaceOnUse" gradientTransform="translate(18.4009 51.453) rotate(-65.5205) scale(37.309 36.8818)">
<stop stop-color="#E0E8B7"/>
<stop offset="0.444662" stop-color="#FB8A2E"/>
<stop offset="0.71474" stop-color="#E2425C"/>
<stop offset="1" stop-color="#E2425C" stop-opacity="0"/>
</radialGradient>
<radialGradient id="paint2_radial_488_962" cx="0" cy="0" r="1" gradientUnits="userSpaceOnUse" gradientTransform="translate(1.31389 5.075) rotate(-8.27311) scale(63.3112 13.7732)">
<stop offset="0.156701" stop-color="#406ADC"/>
<stop offset="0.467799" stop-color="#6A45BE"/>
<stop offset="1" stop-color="#6A45BE" stop-opacity="0"/>
</radialGradient>
</defs>
</svg>
