<svg width="25" height="25" viewBox="0 0 25 25" fill="none" xmlns="http://www.w3.org/2000/svg">
<path d="M23.0679 16.0442L18.4546 13.9768C18.2456 13.8873 18.0175 13.8513 17.7911 13.8721C17.5646 13.8929 17.3469 13.9698 17.1577 14.096C17.1385 14.1083 17.1202 14.122 17.103 14.137L14.6919 16.1878C14.6669 16.2014 14.639 16.209 14.6106 16.2101C14.5821 16.2111 14.5538 16.2055 14.5278 16.1936C12.978 15.4456 11.3726 13.8499 10.6216 12.3216C10.6091 12.296 10.6026 12.268 10.6026 12.2395C10.6026 12.2111 10.6091 12.183 10.6216 12.1575L12.6792 9.71609C12.694 9.69803 12.7077 9.67911 12.7202 9.65945C12.8446 9.46951 12.9198 9.25158 12.9389 9.02534C12.958 8.79909 12.9204 8.57165 12.8296 8.36355L10.7769 3.75808C10.6603 3.48622 10.4587 3.25949 10.2023 3.11193C9.94594 2.96438 9.64863 2.90395 9.35499 2.93972C8.07884 3.10749 6.90745 3.73419 6.0597 4.70271C5.21196 5.67123 4.74587 6.91529 4.74855 8.20242C4.74855 15.8489 10.9692 22.0696 18.6157 22.0696C19.9028 22.0721 21.1468 21.6059 22.1152 20.7582C23.0837 19.9105 23.7105 18.7392 23.8784 17.4632C23.9141 17.1709 23.8545 16.8749 23.7085 16.6193C23.5624 16.3636 23.3378 16.1619 23.0679 16.0442ZM18.6157 20.8977C11.6157 20.8977 5.92042 15.2024 5.92042 8.20242C5.91716 7.2004 6.27882 6.23146 6.93785 5.47665C7.59687 4.72183 8.50817 4.23278 9.50148 4.10086H9.52394C9.56329 4.10159 9.6015 4.1142 9.63357 4.13703C9.66563 4.15986 9.69005 4.19184 9.70362 4.22879L11.7642 8.82937C11.7759 8.85495 11.782 8.88277 11.782 8.91091C11.782 8.93906 11.7759 8.96688 11.7642 8.99246L9.70265 11.4397C9.68727 11.4572 9.67323 11.4758 9.66066 11.4954C9.53166 11.6923 9.45569 11.9192 9.44013 12.1541C9.42456 12.389 9.46991 12.624 9.57179 12.8362C10.438 14.6096 12.2251 16.3831 14.0181 17.2493C14.2316 17.3506 14.4676 17.3949 14.7033 17.3778C14.939 17.3606 15.1662 17.2827 15.3628 17.1516C15.3814 17.1389 15.3999 17.1253 15.4175 17.1106L17.8276 15.0598C17.8514 15.0471 17.8777 15.0396 17.9047 15.0379C17.9317 15.0362 17.9587 15.0403 17.9839 15.0501L22.5982 17.1175C22.6358 17.1335 22.6675 17.161 22.6887 17.1961C22.7099 17.2311 22.7196 17.2719 22.7163 17.3128C22.5851 18.3065 22.0965 19.2185 21.3418 19.8783C20.5872 20.538 19.6181 20.9004 18.6157 20.8977Z" fill="#012C6D"/>
</svg>
