<svg width="26" height="26" viewBox="0 0 26 26" fill="none" xmlns="http://www.w3.org/2000/svg">
<path fill-rule="evenodd" clip-rule="evenodd" d="M2 11.9246C2 6.71952 6.21952 2.5 11.4246 2.5C16.6296 2.5 20.8491 6.71952 20.8491 11.9246C20.8491 14.4717 19.8387 16.7829 18.1967 18.479C18.1556 18.5091 18.1163 18.5427 18.0792 18.5798C18.0421 18.6169 18.0086 18.6561 17.9785 18.6972C16.2824 20.3389 13.9715 21.3491 11.4246 21.3491C6.21952 21.3491 2 17.1296 2 11.9246ZM18.7647 20.6795C16.7795 22.3457 14.2192 23.3491 11.4246 23.3491C5.11496 23.3491 0 18.2342 0 11.9246C0 5.61496 5.11496 0.5 11.4246 0.5C17.7342 0.5 22.8491 5.61496 22.8491 11.9246C22.8491 14.7195 21.8455 17.28 20.179 19.2653L25.1618 24.2481C25.5523 24.6387 25.5523 25.2718 25.1618 25.6623C24.7713 26.0529 24.1381 26.0529 23.7476 25.6623L18.7647 20.6795Z" fill="#644141"/>
</svg>
