<svg width="25" height="26" viewBox="0 0 25 26" fill="none" xmlns="http://www.w3.org/2000/svg">
<path fill-rule="evenodd" clip-rule="evenodd" d="M13.6936 22.2121L14.4448 21.3656C15.2972 20.3894 16.0639 19.4633 16.746 18.5823L17.3091 17.8394C19.6603 14.6716 20.8365 12.1573 20.8365 10.299C20.8365 6.3323 17.6389 3.11682 13.6936 3.11682C9.7484 3.11682 6.55078 6.3323 6.55078 10.299C6.55078 12.1573 7.72697 14.6716 10.0782 17.8394L10.6413 18.5823C11.6144 19.8292 12.6325 21.0391 13.6936 22.2121Z" stroke="#012C6D" stroke-linecap="round" stroke-linejoin="round"/>
<path d="M13.6935 13.2359C15.3372 13.2359 16.6697 11.9034 16.6697 10.2597C16.6697 8.61599 15.3372 7.28351 13.6935 7.28351C12.0498 7.28351 10.7173 8.61599 10.7173 10.2597C10.7173 11.9034 12.0498 13.2359 13.6935 13.2359Z" stroke="#012C6D" stroke-linecap="round" stroke-linejoin="round"/>
</svg>
